<?xml version="1.0" encoding="UTF-8" standalone="no"?>
<!-- Generator: Adobe Illustrator 16.0.4, SVG Export Plug-In . SVG Version: 6.00 Build 0)  -->

<svg
   version="1.1"
   id="Layer_1"
   x="0px"
   y="0px"
   width="306px"
   height="344.35px"
   viewBox="0 0 306 344.35"
   enable-background="new 0 0 306 344.35"
   xml:space="preserve"
   sodipodi:docname="plus_pp_logo.svg"
   inkscape:version="1.1.2 (0a00cf5339, 2022-02-04)"
   xmlns:inkscape="http://www.inkscape.org/namespaces/inkscape"
   xmlns:sodipodi="http://sodipodi.sourceforge.net/DTD/sodipodi-0.dtd"
   xmlns="http://www.w3.org/2000/svg"
   xmlns:svg="http://www.w3.org/2000/svg"><defs
   id="defs117"><rect
     x="48.386426"
     y="159.17392"
     width="128.70865"
     height="43.703426"
     id="rect47185" /><rect
     x="54.821221"
     y="88.168267"
     width="99.846779"
     height="59.748207"
     id="rect40484" /></defs><sodipodi:namedview
   id="namedview115"
   pagecolor="#ffffff"
   bordercolor="#999999"
   borderopacity="1"
   inkscape:pageshadow="0"
   inkscape:pageopacity="0"
   inkscape:pagecheckerboard="0"
   showgrid="false"
   inkscape:zoom="2.2738492"
   inkscape:cx="134.35368"
   inkscape:cy="173.49435"
   inkscape:window-width="1850"
   inkscape:window-height="1009"
   inkscape:window-x="0"
   inkscape:window-y="0"
   inkscape:window-maximized="1"
   inkscape:current-layer="Layer_1"
   inkscape:snap-object-midpoints="true"
   inkscape:object-paths="true"
   inkscape:snap-bbox="false"
   inkscape:snap-midpoints="true"
   inkscape:snap-global="true" />

<path
   fill="#00599c"
   d="M 302.107,258.262 C 304.508,254.103 306,249.417 306,245.209 V 99.14 c 0,-4.208 -1.49,-8.893 -3.892,-13.052 L 153,172.175 Z"
   id="path96"
   style="display:inline" /><path
   fill="#004482"
   d="m 166.25,341.193 126.5,-73.034 c 3.644,-2.104 6.956,-5.737 9.357,-9.897 L 153,172.175 3.893,258.263 c 2.401,4.159 5.714,7.793 9.357,9.896 l 126.5,73.034 c 7.287,4.208 19.213,4.208 26.5,0 z"
   id="path98"
   style="display:inline" /><path
   d="m 136.5802,181.16844 v 79.01971 h -21.03772 v 9.74918 H 96.146733 v -9.8518 H 74.390657 v -79.01971 h 19.49837 v 59.52134 H 116.9792 v -59.41872 z"
   id="path42"
   style="fill:#ffffff" /><path
   d="m 192.40701,207.54255 q -2.56558,-2.36033 -4.82329,-3.89967 -2.2577,-1.64197 -4.00229,-2.46296 -2.36033,-0.71836 -4.31017,-0.9236 -1.84721,-0.30787 -3.28393,-0.30787 -3.28394,0 -4.72066,1.12885 -1.3341,1.02623 -1.3341,2.15508 0,0.82099 0.9236,1.64197 0.92361,0.71836 2.46296,1.53935 1.64197,0.71836 3.69443,1.43672 2.05246,0.71836 4.20754,1.43672 4.20754,1.43672 8.62033,3.28394 4.41279,1.84721 7.69673,4.51541 4.20754,3.48918 6.05475,8.00459 1.84722,4.51541 1.84722,9.23607 0,4.10492 -1.3341,8.10722 -1.23148,3.89967 -3.48918,6.87574 -2.56558,3.48918 -6.05476,5.64427 -3.48918,2.05246 -8.72296,3.79705 -4.9259,1.3341 -10.05705,1.3341 -7.5941,0 -15.08558,-3.28394 -7.49148,-3.18131 -14.46985,-9.85181 l 9.03083,-10.2623 2.36033,-2.97607 1.23147,-1.43672 q 2.36033,2.05246 5.13115,4.0023 2.77082,1.94984 4.51542,2.6682 2.05246,0.51311 4.00229,0.82098 2.05246,0.30787 3.59181,0.30787 4.20754,0 5.74689,-1.53934 1.64196,-1.53935 1.64196,-2.97607 -0.10262,-1.3341 -1.23147,-2.46295 -1.02623,-1.12886 -2.77082,-2.05246 -1.74459,-1.02623 -4.0023,-1.94984 -2.25771,-1.02623 -4.61804,-1.94984 -3.5918,-1.43672 -7.28623,-3.18131 -3.69443,-1.74459 -6.46525,-3.79705 -4.31016,-3.28394 -6.36262,-7.90197 -1.94984,-4.61804 -1.94984,-9.3387 0,-3.5918 0.92361,-6.77311 1.02623,-3.28394 2.77082,-5.64427 h -0.10263 q 1.94984,-3.28393 5.13115,-5.33639 3.28394,-2.05246 8.51771,-4.0023 4.61804,-1.23148 9.95444,-1.23148 8.00459,0 15.80394,3.48918 7.79935,3.38656 14.88033,10.46755 z"
   id="path44"
   style="fill:#ffffff" />
<path
   fill="#659ad2"
   d="m 302.108,86.087 c -2.402,-4.16 -5.715,-7.793 -9.358,-9.897 L 166.25,3.156 c -7.287,-4.208 -19.213,-4.208 -26.5,0 L 13.25,76.19 C 5.962,80.397 0,90.725 0,99.14 v 146.069 c 0,4.208 1.491,8.894 3.893,13.053 L 153,172.175 Z"
   id="path100"
   style="display:inline" /><path
   d="m 125.75079,97.492942 q 0,-2.23334 -1.67501,-3.908345 -1.56334,-1.675005 -3.90834,-1.675005 H 99.620709 V 107.4313 h 20.546731 q 2.345,0 3.90834,-1.56333 1.67501,-1.67501 1.67501,-3.90835 z m -5.58335,-26.80008 q 5.58335,0 10.4967,2.121673 4.91334,2.121673 8.48669,5.806684 3.68501,3.573344 5.80668,8.486692 2.12167,4.913348 2.12167,10.385031 v 4.466678 q 0,5.69502 -2.12167,10.60837 -2.12167,4.80168 -5.80668,8.48669 -3.57335,3.57334 -8.48669,5.69502 -4.91335,2.01 -10.4967,2.01 H 99.620709 v 27.91675 H 78.180645 V 70.692862 Z"
   id="path19"
   style="display:inline;fill:#ffffff" /><path
   d="m 210.9526,135.45972 v 21.21673 H 159.02745 V 70.804529 h 21.21673 v 64.655191 z"
   id="path21"
   style="display:inline;fill:#ffffff" /><path
   fill="#00599c"
   d="M 237.52424,194.26266 306,194.84183 V 99.14 c 0,-4.208 -1.49,-8.893 -3.892,-13.052 L 153,172.175 Z"
   id="path96-7"
   style="display:inline"
   sodipodi:nodetypes="ccsccc" />

<g
   id="g108"
   style="display:inline">
	<polygon
   fill="#ffffff"
   points="221,177.841 232.334,177.841 232.334,189.175 243.666,189.175 243.666,177.841 255,177.841 255,166.508 243.666,166.508 243.666,155.175 232.334,155.175 232.334,166.508 221,166.508 "
   id="polygon106" />
</g>
<g
   id="g112"
   style="display:inline">
	<polygon
   fill="#ffffff"
   points="274.834,189.175 286.166,189.175 286.166,177.841 297.5,177.841 297.5,166.508 286.166,166.508 286.166,155.175 274.834,155.175 274.834,166.508 263.5,166.508 263.5,177.841 274.834,177.841 "
   id="polygon110" />
</g>
</svg>
