<?xml version="1.0" encoding="UTF-8" standalone="no"?>
<!-- Generator: Adobe Illustrator 16.0.4, SVG Export Plug-In . SVG Version: 6.00 Build 0)  -->

<svg
   version="1.1"
   id="Layer_1"
   x="0px"
   y="0px"
   width="306px"
   height="344.35px"
   viewBox="0 0 306 344.35"
   enable-background="new 0 0 306 344.35"
   xml:space="preserve"
   sodipodi:docname="plus_pp_logo.svg"
   inkscape:version="1.1.2 (0a00cf5339, 2022-02-04)"
   xmlns:inkscape="http://www.inkscape.org/namespaces/inkscape"
   xmlns:sodipodi="http://sodipodi.sourceforge.net/DTD/sodipodi-0.dtd"
   xmlns="http://www.w3.org/2000/svg"
   xmlns:svg="http://www.w3.org/2000/svg"><defs
   id="defs117"><rect
     x="48.386426"
     y="159.17392"
     width="128.70865"
     height="43.703426"
     id="rect47185" /><rect
     x="54.821221"
     y="88.168267"
     width="99.846779"
     height="59.748207"
     id="rect40484" /></defs><sodipodi:namedview
   id="namedview115"
   pagecolor="#ffffff"
   bordercolor="#999999"
   borderopacity="1"
   inkscape:pageshadow="0"
   inkscape:pageopacity="0"
   inkscape:pagecheckerboard="0"
   showgrid="false"
   inkscape:zoom="2.2738492"
   inkscape:cx="332.25598"
   inkscape:cy="164.25891"
   inkscape:window-width="1850"
   inkscape:window-height="1009"
   inkscape:window-x="0"
   inkscape:window-y="0"
   inkscape:window-maximized="1"
   inkscape:current-layer="Layer_1"
   inkscape:snap-object-midpoints="true"
   inkscape:object-paths="true"
   inkscape:snap-bbox="false"
   inkscape:snap-midpoints="true"
   inkscape:snap-global="true" />

<path
   fill="#00599c"
   d="M 302.107,258.262 C 304.508,254.103 306,249.417 306,245.209 V 99.14 c 0,-4.208 -1.49,-8.893 -3.892,-13.052 L 153,172.175 Z"
   id="path96"
   style="display:inline" /><path
   fill="#004482"
   d="m 166.25,341.193 126.5,-73.034 c 3.644,-2.104 6.956,-5.737 9.357,-9.897 L 153,172.175 3.893,258.263 c 2.401,4.159 5.714,7.793 9.357,9.896 l 126.5,73.034 c 7.287,4.208 19.213,4.208 26.5,0 z"
   id="path98"
   style="display:inline" /><text
   xml:space="preserve"
   style="font-style:normal;font-variant:normal;font-weight:normal;font-stretch:normal;font-size:102.623px;line-height:1.25;font-family:'Cold War Filled';-inkscape-font-specification:'Cold War Filled, Normal';font-variant-ligatures:normal;font-variant-caps:normal;font-variant-numeric:normal;font-variant-east-asian:normal;fill:#ffffff;fill-opacity:1;stroke:none;stroke-width:2.56556"
   x="67.617538"
   y="256.18585"
   id="text2703"><tspan
     sodipodi:role="line"
     id="tspan2701"
     x="67.617538"
     y="256.18585"
     style="stroke-width:2.56556">US</tspan></text>
<path
   fill="#659ad2"
   d="m 302.108,86.087 c -2.402,-4.16 -5.715,-7.793 -9.358,-9.897 L 166.25,3.156 c -7.287,-4.208 -19.213,-4.208 -26.5,0 L 13.25,76.19 C 5.962,80.397 0,90.725 0,99.14 v 146.069 c 0,4.208 1.491,8.894 3.893,13.053 L 153,172.175 Z"
   id="path100"
   style="display:inline" /><text
   xml:space="preserve"
   style="font-style:normal;font-variant:normal;font-weight:normal;font-stretch:normal;font-size:111.667px;line-height:1.25;font-family:'Cold War Filled';-inkscape-font-specification:'Cold War Filled, Normal';font-variant-ligatures:normal;font-variant-caps:normal;font-variant-numeric:normal;font-variant-east-asian:normal;fill:#ffffff;fill-opacity:1;stroke:none;stroke-width:2.79167"
   x="70.810623"
   y="152.43311"
   id="text49743"
   transform="scale(0.95537748,1.0467067)"><tspan
     sodipodi:role="line"
     id="tspan49741"
     x="70.810623"
     y="152.43311"
     style="stroke-width:2.79167">PL</tspan></text><path
   fill="#00599c"
   d="M 237.52424,194.26266 306,194.84183 V 99.14 c 0,-4.208 -1.49,-8.893 -3.892,-13.052 L 153,172.175 Z"
   id="path96-7"
   style="display:inline"
   sodipodi:nodetypes="ccsccc" />

<g
   id="g108"
   style="display:inline">
	<polygon
   fill="#ffffff"
   points="221,177.841 232.334,177.841 232.334,189.175 243.666,189.175 243.666,177.841 255,177.841 255,166.508 243.666,166.508 243.666,155.175 232.334,155.175 232.334,166.508 221,166.508 "
   id="polygon106" />
</g>
<g
   id="g112"
   style="display:inline">
	<polygon
   fill="#ffffff"
   points="274.834,166.508 263.5,166.508 263.5,177.841 274.834,177.841 274.834,189.175 286.166,189.175 286.166,177.841 297.5,177.841 297.5,166.508 286.166,166.508 286.166,155.175 274.834,155.175 "
   id="polygon110" />
</g>
</svg>
